<svg width="30" height="31" viewBox="0 0 30 31" fill="none" xmlns="http://www.w3.org/2000/svg">
<path d="M14.3633 0.0201721H15.52C15.7903 0.120333 16.0871 0.172792 16.3385 0.271662C17.2438 0.635553 17.9757 1.33197 18.3841 2.21816C18.7297 2.97602 18.7257 3.5982 18.7284 4.40577C19.6767 4.78314 20.409 5.11144 21.2619 5.69252C21.6154 5.93337 21.9616 6.22212 22.2978 6.44673C23.4209 5.78662 24.3283 5.41484 25.6746 5.76793C26.6372 6.02047 27.4595 6.64639 27.9591 7.50708C28.4584 8.3713 28.5935 9.3986 28.3346 10.3625C28.1085 11.211 27.5895 11.9521 26.8693 12.4546C26.6244 12.624 26.257 12.8198 26.0394 12.9802C26.2729 14.3997 26.2949 15.6538 26.0305 17.0773C27.13 17.6654 27.9224 18.2982 28.2996 19.5455C28.5942 20.5079 28.4893 21.5483 28.0085 22.4325C27.5248 23.3156 26.7112 23.9713 25.7456 24.2564C24.7181 24.5579 23.7209 24.3839 22.7967 23.8747C22.6237 23.7773 22.4519 23.678 22.2811 23.5769C21.1323 24.4964 20.1352 25.1182 18.7402 25.6349C18.7148 25.9919 18.7291 26.369 18.691 26.7141C18.5818 27.6442 18.126 28.4988 17.4144 29.1076C17.06 29.4143 16.5833 29.7131 16.1293 29.8336C16.0213 29.8623 15.6314 29.9736 15.5541 30.0202H14.3953C14.3285 29.983 14.2227 29.9496 14.1501 29.9323C13.2823 29.7246 12.5723 29.2799 12.0147 28.5847C11.2644 27.6491 11.2278 26.7797 11.2148 25.6447C11.1552 25.6142 11.0907 25.5889 11.028 25.5652C9.77689 25.0917 8.69548 24.4313 7.66042 23.5864L6.9999 23.9485C6.12565 24.4303 5.09279 24.5349 4.13967 24.2382C3.18609 23.9491 2.38634 23.2931 1.91629 22.4145C1.45055 21.5235 1.3565 20.4842 1.65469 19.5241C2.03784 18.2877 2.79858 17.6658 3.88954 17.0906C3.66366 15.3523 3.67297 14.6865 3.8944 12.9548C2.85224 12.4045 2.07411 11.7835 1.6796 10.6248C1.35868 9.67704 1.42342 8.64107 1.85984 7.74063C2.28933 6.84772 3.06014 6.16528 3.99852 5.84714C4.88572 5.54445 5.8538 5.58271 6.71437 5.95443C7.03177 6.09462 7.35383 6.29767 7.67194 6.4559C8.41699 5.80748 9.24987 5.26745 10.1459 4.85184C11.454 4.23819 11.1244 4.76044 11.2442 3.42321C11.2711 3.08659 11.3447 2.75536 11.4629 2.43902C11.8427 1.4298 12.7254 0.511689 13.7769 0.217731C13.9427 0.171388 14.1911 0.100056 14.343 0.0297375L14.3633 0.0201721ZM15.1914 20.0109C17.9495 19.8873 20.0843 17.5495 19.9574 14.7914C19.8305 12.0334 17.4901 9.90145 14.7323 10.0316C11.979 10.1616 9.85148 12.4972 9.97813 15.2505C10.1048 18.0039 12.4378 20.1343 15.1914 20.0109Z" fill="#657084"/>
</svg>
